<?xml version="1.0" ?><!DOCTYPE svg  PUBLIC '-//W3C//DTD SVG 1.1//EN'  'http://www.w3.org/Graphics/SVG/1.1/DTD/svg11.dtd'><svg height="1.04167in" style="shape-rendering:geometricPrecision; text-rendering:geometricPrecision; image-rendering:optimizeQuality; fill-rule:evenodd; clip-rule:evenodd" version="1.1" viewBox="0 0 201 201" width="1.04167in" xml:space="preserve" xmlns="http://www.w3.org/2000/svg" xmlns:xlink="http://www.w3.org/1999/xlink"><defs><style type="text/css">
   <![CDATA[
    .fil1 {fill:#FEFEFE}
    .fil0 {fill:#379AD0}
   ]]>
  </style></defs><g id="Layer_x0020_1"><g id="_541895288"><rect class="fil0" height="201" rx="19" ry="19" width="201"/><g><polygon class="fil1" points="39,102 39,162 68,162 68,97 68,80 39,80 "/><path class="fil1" d="M54 39c-8,0 -15,7 -15,15 0,7 7,14 15,14 7,0 14,-7 14,-14 0,-8 -7,-15 -14,-15z"/><path class="fil1" d="M161 105c-2,-15 -9,-25 -30,-25 -12,0 -20,5 -24,11l0 0 0 -11 -23 0 0 16 0 66 24 0 0 -41c0,-10 2,-21 15,-21 13,0 14,13 14,22l0 40 25 0 0 -45 0 0c0,-4 0,-8 -1,-12z"/></g></g></g></svg>